<?xml version="1.0" encoding="UTF-8" standalone="no"?>
<!-- Creator: CorelDRAW X6 -->

<svg
   xmlns:dc="http://purl.org/dc/elements/1.1/"
   xmlns:cc="http://creativecommons.org/ns#"
   xmlns:rdf="http://www.w3.org/1999/02/22-rdf-syntax-ns#"
   xmlns:svg="http://www.w3.org/2000/svg"
   xmlns="http://www.w3.org/2000/svg"
   xmlns:xlink="http://www.w3.org/1999/xlink"
   xmlns:sodipodi="http://sodipodi.sourceforge.net/DTD/sodipodi-0.dtd"
   xmlns:inkscape="http://www.inkscape.org/namespaces/inkscape"
   xml:space="preserve"
   width="159.43991"
   height="94.476242"
   version="1.1"
   style="fill-rule:evenodd"
   viewBox="0 0 886.00001 524.99999"
   id="svg2"
   inkscape:version="0.48.2 r9819"
   sodipodi:docname="cocktailscout-gold.svg"><metadata
   id="metadata31"><rdf:RDF><cc:Work
       rdf:about=""><dc:format>image/svg+xml</dc:format><dc:type
         rdf:resource="http://purl.org/dc/dcmitype/StillImage" /><dc:title /></cc:Work></rdf:RDF></metadata><sodipodi:namedview
   pagecolor="#ffffff"
   bordercolor="#666666"
   borderopacity="1"
   objecttolerance="10"
   gridtolerance="10"
   guidetolerance="10"
   inkscape:pageopacity="0"
   inkscape:pageshadow="2"
   inkscape:window-width="930"
   inkscape:window-height="645"
   id="namedview29"
   showgrid="false"
   inkscape:zoom="2.86"
   inkscape:cx="102.25908"
   inkscape:cy="56.942129"
   inkscape:window-x="197"
   inkscape:window-y="14"
   inkscape:window-maximized="0"
   inkscape:current-layer="svg2"
   fit-margin-top="0"
   fit-margin-left="0"
   fit-margin-right="0"
   fit-margin-bottom="0" />
 <defs
   id="defs4">
  <style
   type="text/css"
   id="style6">
   
    .fil0 {fill:#44000B}
    .fil2 {fill:url(#id0)}
    .fil1 {fill:url(#id1)}
   
  </style>
  <linearGradient
   id="id0"
   gradientUnits="userSpaceOnUse"
   x1="887.83698"
   y1="1104.35"
   x2="1081.92"
   y2="707.64899">
   <stop
   offset="0"
   style="stop-color:#B68D1E"
   id="stop9" />
   <stop
   offset="0.301961"
   style="stop-color:#E2BE46"
   id="stop11" />
   <stop
   offset="0.54902"
   style="stop-color:#FFFF99"
   id="stop13" />
   <stop
   offset="0.788235"
   style="stop-color:#E2BE46"
   id="stop15" />
   <stop
   offset="1"
   style="stop-color:#B68D1E"
   id="stop17" />
  </linearGradient>
  <linearGradient
   id="id1"
   gradientUnits="userSpaceOnUse"
   xlink:href="#id0"
   x1="921.59601"
   y1="1336.3101"
   x2="1047.66"
   y2="1078.65">
  </linearGradient>
 <linearGradient
   inkscape:collect="always"
   xlink:href="#id0"
   id="linearGradient3008"
   gradientUnits="userSpaceOnUse"
   x1="921.59601"
   y1="1336.3101"
   x2="1047.66"
   y2="1078.65" /><linearGradient
   inkscape:collect="always"
   xlink:href="#id0"
   id="linearGradient3010"
   gradientUnits="userSpaceOnUse"
   x1="887.83698"
   y1="1104.35"
   x2="1081.92"
   y2="707.64899" />
  
  
  
 </defs>
 <g
   id="_395424568"
   transform="translate(-541,-723)">
   <path
   inkscape:connector-curvature="0"
   style="fill:url(#linearGradient3008)"
   id="path25"
   d="m 616,1222 -6,0 c -5,13 -16,20 -30,20 -18,0 -33,-16 -33,-35 0,-19 15,-35 33,-35 14,0 25,8 30,20 l 6,0 c -5,-16 -19,-26 -36,-26 -21,0 -39,18 -39,41 0,22 17,40 39,40 17,0 31,-10 36,-26 z m 424,24 36,0 0,-6 -36,0 0,-72 -6,0 0,78 6,0 z m -29,-78 -6,0 0,78 6,0 0,-78 z m -26,78 c -1,-3 -2,-9 -2,-13 l 0,-44 c 0,-15 -11,-23 -31,-23 -18,0 -29,8 -33,22 l 6,0 c 3,-11 13,-16 27,-16 11,0 25,3 25,18 0,10 -11,11 -29,13 -17,2 -33,6 -33,23 0,15 15,22 28,22 15,0 27,-5 34,-14 l 0,2 c 0,5 1,8 2,11 l 6,0 z m -8,-28 c 0,16 -17,24 -34,24 -8,0 -22,-3 -22,-16 0,-11 8,-16 28,-18 11,-1 22,-2 28,-8 l 0,18 z m -91,-44 21,0 0,-6 -21,0 -6,0 -11,0 0,6 11,0 0,45 c 0,17 10,28 27,27 l 0,-5 c -15,1 -21,-8 -21,-22 l 0,-45 z m -57,27 30,45 7,0 -33,-49 29,-28 -8,0 -46,44 0,-44 -6,0 0,78 6,0 0,-26 20,-19 z m -43,21 -6,0 c -5,13 -16,20 -30,20 -18,0 -33,-16 -33,-35 0,-19 15,-35 33,-35 14,0 25,8 30,20 l 6,0 c -5,-16 -19,-26 -36,-26 -21,0 -39,18 -39,41 0,22 17,40 39,40 17,0 31,-10 36,-26 z m -122,-56 c -21,0 -39,18 -39,41 0,22 18,40 39,40 21,0 39,-18 39,-40 0,-23 -18,-41 -39,-41 z m 0,76 c -18,0 -33,-16 -33,-35 0,-20 15,-36 33,-36 18,0 33,16 33,36 0,19 -15,35 -33,35 z m 461,-19 c -1,-16 -16,-19 -32,-21 -17,-2 -25,-6 -26,-15 0,-9 10,-16 24,-16 14,0 23,6 26,16 l 6,0 c -3,-14 -15,-22 -32,-22 -19,0 -30,11 -29,21 0,15 17,19 30,21 19,3 26,7 27,16 1,13 -15,17 -25,17 l -5,0 0,5 5,0 c 15,0 32,-5 31,-22 z m 85,-2 -6,0 c -5,13 -16,20 -30,20 -18,0 -33,-16 -33,-35 0,-19 15,-35 33,-35 14,0 25,8 30,20 l 6,0 c -5,-16 -19,-26 -36,-26 -21,0 -39,18 -39,41 0,22 17,40 39,40 17,0 31,-10 36,-26 z m 49,-56 c -21,0 -39,18 -39,41 0,22 18,40 39,40 21,0 39,-18 39,-40 0,-23 -18,-41 -39,-41 z m 0,76 c -18,0 -33,-16 -33,-35 0,-20 15,-36 33,-36 18,0 33,16 33,36 0,19 -15,35 -33,35 z m 119,-74 -6,0 0,47 c 0,16 -11,27 -27,27 -16,0 -27,-11 -27,-27 l 0,-47 -6,0 0,47 c 0,19 14,33 33,33 12,0 22,-6 27,-15 l 0,13 6,0 0,-78 z m 28,6 21,0 0,-6 -21,0 -6,0 -11,0 0,6 11,0 0,45 c 0,17 10,28 27,27 l 0,-5 c -15,1 -21,-8 -21,-22 l 0,-45 z"
   class="fil1" />
   <path
   inkscape:connector-curvature="0"
   style="fill:url(#linearGradient3010)"
   id="path27"
   d="M 1179.1171,935.05856 C 1176.1171,877.05856 1119,861 1060,852 c -63,-9 -93,-19 -94,-52 0,-17 9,-32 26,-43 22,12 40,31 51,55 l 23,0 c -10,-27 -28,-50 -50,-65 11,-3 24,-5 38,-5 51,0 85,32 96,71 l 21,0 c -12,-52 -55,-90 -118,-90 -24,0 -44,4 -60,12 -17,-8 -37,-12 -58,-12 -79,0 -143,68 -143,151 0,82 64,149 143,149 9,0 18,-1 27,-2 l -18,-18 c -3,0 -6,0 -9,0 -67,0 -122,-58 -122,-129 0,-72 55,-130 122,-130 12,0 24,2 35,5 -17,14 -25,33 -25,52 1,57 62,65 112,72 70,10 98,28 100,63 1,15 -4,29 -14,40 -17,17 -46,28 -80,28 -6,0 -13,0 -19,-1 l -17,17 c 11,2 24,3 37,3 40,0 74,-12 95,-33 14,-14 21,-34 20,-55 z M 999,1007 l 0,74 35,9 0,1 -81,0 0,-1 35,-9 0,-74 -70,-76 14,0 123,0 14,0 z m -103,-101 89,53 c 1,0 0,-1 0,-2 0,-5 -5,-11 -8,-15 -1,-1 -2,-1 -2,-1 -2,0 -1,-2 0,-2 1,0 2,2 4,3 2,2 7,8 8,15 0,1 2,-1 2,-2 8,-13 25,6 19,18 l 3,2 c 9,8 9,8 -2,3 l -3,-2 c -8,9 -25,3 -28,-5 -1,-3 0,-6 3,-9 l -87,-52 c -1,0 -1,1 -2,1 -3,1 -6,-1 -6,-4 -1,-3 1,-6 4,-6 3,-1 6,1 6,4 0,1 0,2 0,2 z"
   class="fil2"
   sodipodi:nodetypes="cccccccsccscsssccssscccccsccsscccccccccccccccccsccscccccccccccccscc" />
  </g>
</svg>