<?xml version="1.0" encoding="UTF-8"?>
<!DOCTYPE svg PUBLIC "-//W3C//DTD SVG 1.1//EN" "http://www.w3.org/Graphics/SVG/1.1/DTD/svg11.dtd">
<!-- Creator: CorelDRAW X6 -->
<svg xmlns="http://www.w3.org/2000/svg" xml:space="preserve" width="3.93701in" height="3.93701in" version="1.1" style="shape-rendering:geometricPrecision; text-rendering:geometricPrecision; image-rendering:optimizeQuality; fill-rule:evenodd; clip-rule:evenodd"
viewBox="0 0 5180274 5180274"
 xmlns:xlink="http://www.w3.org/1999/xlink">
 <defs>
  <style type="text/css">
   <![CDATA[
    .fil0 {fill:white}
    .fil2 {fill:url(#id0)}
    .fil1 {fill:url(#id1)}
   ]]>
  </style>
  <linearGradient id="id0" gradientUnits="userSpaceOnUse" x1="2.17498e+006" y1="2.90706e+006" x2="3.00664e+006" y2="1.85956e+006">
   <stop offset="0" style="stop-color:#660000"/>
   <stop offset="0.301961" style="stop-color:#7F0000"/>
   <stop offset="0.54902" style="stop-color:#C40020"/>
   <stop offset="0.788235" style="stop-color:#7F0000"/>
   <stop offset="1" style="stop-color:#660000"/>
  </linearGradient>
  <linearGradient id="id1" gradientUnits="userSpaceOnUse" xlink:href="#id0" x1="2.22809e+006" y1="3.63238e+006" x2="2.95218e+006" y2="2.72036e+006">
  </linearGradient>
 </defs>
 <g id="Layer_x0020_1">
  <metadata id="CorelCorpID_0Corel-Layer"/>
  <polygon class="fil0" points="0,0 5180274,0 5180274,5180274 0,5180274 "/>
  <g id="_397550648">
   <path class="fil1" d="M1621094 3215271l-15479 0c-12314,32962 -41287,53600 -79004,53600 -48037,0 -87339,-41287 -87339,-91706 0,-51207 39303,-92898 87339,-92898 36521,0 65499,20649 78600,53207l15883 0c-13893,-41297 -49233,-68286 -94483,-68286 -56377,0 -102031,48430 -102031,107978 0,58755 45654,106392 102031,106392 45250,0 80978,-26989 94483,-68286zm1114344 63521l95286 0 0 -14686 -95286 0 0 -189764 -14686 0 0 204450 14686 0zm-75818 -204450l-14691 0 0 204450 14691 0 0 -204450zm-67489 204450c-3181,-7936 -5957,-23026 -5957,-33340l0 -115525c0,-38505 -29377,-60739 -80590,-60739 -46053,0 -76616,21037 -85744,57563l15080 0c8739,-27792 33351,-43276 70664,-43276 30170,0 65898,8739 65898,46452 0,25005 -30170,29771 -75420,34138 -43675,3973 -86941,14686 -86941,61143 0,39298 38500,57159 74228,57159 40494,0 71861,-14287 88132,-37314l0 3973c0,12702 1989,22223 5558,29766l15090 0zm-20649 -74233c0,43271 -44063,63116 -88132,63116 -20245,0 -58351,-9128 -58351,-42872 0,-28181 20245,-42079 72648,-47234 28186,-2388 57962,-5170 73834,-19851l0 46840zm-238982 -115525l55180 0 0 -14691 -55180 0 -14691 0 -27782 0 0 14691 27782 0 0 119094c0,45664 25808,74637 69872,70664l0 -13495c-38909,1585 -55180,-22234 -55180,-57169l0 -119094zm-150461 70664l80196 119094 17862 0 -87339 -129807 77414 -74643 -21037 0 -119892 115929 0 -115929 -14686 0 0 204450 14686 0 0 -68276 52797 -50818zm-111951 55574l-15484 0c-12303,32962 -41287,53600 -78999,53600 -48031,0 -87345,-41287 -87345,-91706 0,-51207 39313,-92898 87345,-92898 36521,0 65505,20649 78605,53207l15878 0c-13899,-41297 -49223,-68286 -94483,-68286 -56372,0 -102020,48430 -102020,107978 0,58755 45649,106392 102020,106392 45260,0 80988,-26989 94483,-68286zm-320369 -146084c-55973,0 -102025,48430 -102025,107978 0,58755 46053,106392 102025,106392 56372,0 102424,-47638 102424,-106392 0,-59547 -46053,-107978 -102424,-107978zm0 200477c-48037,0 -87339,-41680 -87339,-92499 0,-52005 39303,-94084 87339,-94084 48425,0 87334,42079 87334,94084 0,50818 -38909,92499 -87334,92499zm1212795 -48824c-1533,-41313 -41261,-50264 -83760,-56408 -45224,-6558 -66706,-16245 -67095,-39671 -399,-23809 25808,-41680 62728,-41680 36526,0 59941,15878 68281,43276l15090 0c-8739,-36925 -38510,-57169 -83770,-57169 -51212,0 -77730,27792 -77414,55574 466,40494 44457,48866 79792,53958 50010,7211 69659,17535 71068,42515 1979,35070 -38246,43675 -66701,43675l-13888 0 0 13883 13888 0c38769,0 83470,-12940 81781,-57952zm222710 -5569l-15484 0c-12298,32962 -41287,53600 -78999,53600 -48031,0 -87339,-41287 -87339,-91706 0,-51207 39308,-92898 87339,-92898 36521,0 65505,20649 78611,53207l15872 0c-13893,-41297 -49223,-68286 -94483,-68286 -56372,0 -102020,48430 -102020,107978 0,58755 45649,106392 102020,106392 45260,0 80988,-26989 94483,-68286zm128626 -146084c-55973,0 -102020,48430 -102020,107978 0,58755 46047,106392 102020,106392 56377,0 102419,-47638 102419,-106392 0,-59547 -46042,-107978 -102419,-107978zm0 200477c-48037,0 -87339,-41680 -87339,-92499 0,-52005 39303,-94084 87339,-94084 48430,0 87339,42079 87339,94084 0,50818 -38909,92499 -87339,92499zm312039 -195322l-14691 0 0 123472c0,41276 -29776,71058 -71457,71058 -40893,0 -71058,-29781 -71058,-71058l0 -123472 -14696 0 0 123472c0,49617 36127,85744 85754,85744 32159,0 57563,-14686 71457,-38505l0 33739 14691 0 0 -204450zm74627 14691l55185 0 0 -14691 -55185 0 -14686 0 -27787 0 0 14691 27787 0 0 119094c0,45664 25803,74637 69872,70664l0 -13495c-38909,1585 -55185,-22234 -55185,-57169l0 -119094z"/>
   <path class="fil2" d="M3096804 2455745c-7335,-152207 -152217,-193172 -308791,-216592 -166831,-23420 -245856,-51212 -247322,-137567 -762,-45566 24902,-85215 68753,-112816 58283,31284 104450,81392 133485,145017l59599 0c-27186,-71835 -72503,-131014 -131139,-172291 29854,-8765 63748,-13567 100534,-13567 134630,0 222861,84884 253595,185858l55621 0c-32201,-136096 -143856,-237075 -310687,-237075 -63536,0 -116639,11619 -159107,30921 -45612,-20048 -96742,-30921 -151880,-30921 -207812,0 -376093,178533 -376093,398047 0,216592 168281,392204 376093,392204 24456,0 48156,-2150 70959,-6278l-48539 -48539c-7392,451 -14852,668 -22420,668 -177077,0 -321959,-152191 -321959,-338054 0,-188780 144882,-342442 321959,-342442 32496,0 63370,4424 92199,12847 -44214,37863 -66577,87143 -66577,136423 2922,149270 163909,171224 294146,190251 184392,26342 259029,73166 261941,165365 2948,39510 -10226,76103 -36568,103911 -43903,45358 -120006,74637 -210734,74637 -17085,0 -33573,-746 -49441,-2207l-45504 45504c30149,5258 62381,7915 96400,7915 105356,0 194638,-32201 248793,-87806 36568,-38044 54129,-90727 52683,-143411zm-469421 192934l0 194157 92634 24068 0 2999 -212319 0 0 -3010 92623 -24057 0 -194157 -185257 -198793 37013 0 323560 0 37003 0 -185257 198793zm-269789 -266800l232952 138780c2487,-844 855,-3885 730,-6222 -762,-13862 -12013,-30020 -22187,-38738 -2165,-1855 -4010,-3481 -6144,-3844 -4471,-772 -2657,-6232 559,-5688 3067,518 6108,5258 9573,8553 6201,5874 18773,21317 21695,39080 528,3248 4885,-2114 6558,-4802 20700,-33423 65707,14800 50622,48285l7392 4403c24586,20602 24653,20467 -5160,8651l-7113 -4243c-20674,23814 -65914,9029 -73063,-14168 -2378,-7724 -461,-16318 8143,-24591l-229709 -136801c-1430,1103 -3103,1958 -4952,2450 -7413,1994 -15018,-2404 -17007,-9817 -1984,-7397 2409,-15012 9822,-17002 7397,-1979 15018,2419 17002,9817 528,1989 606,3994 285,5895z"/>
  </g>
 </g>
</svg>
