<?xml version="1.0" encoding="UTF-8" standalone="no"?>
<!-- Creator: CorelDRAW X6 -->

<svg
   xml:space="preserve"
   width="1.1810858in"
   height="1.1340915in"
   version="1.1"
   style="clip-rule:evenodd;fill-rule:evenodd;image-rendering:optimizeQuality;shape-rendering:geometricPrecision;text-rendering:geometricPrecision"
   viewBox="0 0 1554059.6 1492225"
   id="svg5"
   xmlns="http://www.w3.org/2000/svg"
   xmlns:svg="http://www.w3.org/2000/svg">
 <defs
   id="defs5">
  <style
   type="text/css"
   id="style1">
   <![CDATA[
    .fil0 {fill:white}
    .fil1 {fill:url(#id0)}
   ]]>
  </style>
  <linearGradient
   id="id0"
   gradientUnits="userSpaceOnUse"
   x1="1953600"
   y1="3393240"
   x2="3228800"
   y2="1787080">
   <stop
   offset="0"
   style="stop-color:#660000"
   id="stop1" />
   <stop
   offset="0.301961"
   style="stop-color:#7F0000"
   id="stop2" />
   <stop
   offset="0.54902"
   style="stop-color:#C40020"
   id="stop3" />
   <stop
   offset="0.788235"
   style="stop-color:#7F0000"
   id="stop4" />
   <stop
   offset="1"
   style="stop-color:#660000"
   id="stop5" />
  </linearGradient>
 </defs>
 <g
   id="Layer_x0020_1"
   transform="translate(-1813127,-1844042)">
  <metadata
   id="CorelCorpID_0Corel-Layer" />
  <path
   class="fil1"
   d="m 3367059,2701233 c -11246,-233387 -233397,-296198 -473477,-332113 -255807,-35910 -376979,-78528 -379232,-210936 -1166,-69866 38189,-130667 105424,-172985 89370,47964 160159,124803 204683,222358 h 91385 c -41691,-110148 -111179,-200891 -201083,-264178 45773,-13443 97747,-20804 154149,-20804 206434,0 341722,130154 388847,284982 h 85283 c -49373,-208682 -220576,-363515 -476383,-363515 -97425,0 -178849,17815 -243965,47410 -69939,-30740 -148337,-47410 -232879,-47410 -318649,0 -576684,273752 -576684,610340 0,332107 258035,601378 576684,601378 37495,0 73834,-3300 108801,-9625 l -74430,-74430 c -11329,689 -22767,1026 -34371,1026 -271524,0 -493675,-233361 -493675,-518349 0,-289463 222151,-525078 493675,-525078 49824,0 97161,6781 141364,19695 -67794,58061 -102082,133625 -102082,209185 4476,228880 251326,262541 451026,291717 282734,40391 397177,112189 401642,253559 4517,60583 -15681,116691 -56071,159335 -67318,69545 -184008,114437 -323125,114437 -26197,0 -51482,-1145 -75808,-3383 l -69773,69773 c 46229,8066 95649,12137 147814,12137 161547,0 298446,-49373 381481,-134635 56071,-58330 82998,-139111 80781,-219892 z m -719773,295825 v 297710 l 142033,36904 v 4595 h -325554 v -4610 l 142022,-36889 v -297710 l -284060,-304812 h 56750 496125 56740 l -284055,304812 z m -413676,-409086 357185,212795 c 3813,-1300 1311,-5957 1124,-9542 -1171,-21260 -18421,-46027 -34019,-59397 -3326,-2849 -6149,-5336 -9423,-5895 -6854,-1181 -4077,-9558 855,-8724 4709,798 9366,8066 14681,13116 9506,9008 28787,32682 33268,59920 808,4978 7491,-3243 10055,-7361 31740,-51248 100751,22695 77621,74036 l 11334,6755 c 37697,31584 37800,31382 -7915,13262 l -10899,-6506 c -31703,36516 -101072,13847 -112034,-21721 -3647,-11842 -705,-25021 12484,-37707 l -352217,-209760 c -2196,1694 -4755,3005 -7589,3756 -11371,3062 -23031,-3683 -26083,-15049 -3041,-11345 3694,-23021 15059,-26072 11345,-3036 23031,3709 26067,15049 813,3051 932,6123 446,9045 z"
   id="path5"
   style="fill:url(#id0)" />
 </g>
</svg>
