<?xml version="1.0" encoding="UTF-8"?>
<svg width="388px" height="368px" viewBox="0 0 388 368" version="1.1" xmlns="http://www.w3.org/2000/svg" xmlns:xlink="http://www.w3.org/1999/xlink">
    <!-- Generator: Sketch 52.6 (67491) - http://www.bohemiancoding.com/sketch -->
    <title>path27</title>
    <desc>Created with Sketch.</desc>
    <defs>
        <linearGradient x1="24.7565866%" y1="103.627717%" x2="74.8920675%" y2="-4.17147011%" id="linearGradient-1">
            <stop stop-color="#B68D1E" offset="0%"></stop>
            <stop stop-color="#E2BE46" offset="30.1961%"></stop>
            <stop stop-color="#FFFF99" offset="54.902%"></stop>
            <stop stop-color="#E2BE46" offset="78.8235%"></stop>
            <stop stop-color="#B68D1E" offset="100%"></stop>
        </linearGradient>
    </defs>
    <g id="Page-1" stroke="none" stroke-width="1" fill="none" fill-rule="evenodd">
        <path d="M387.1171,212.05856 C384.1171,154.05856 327,138 268,129 C205,120 175,110 174,77 C174,60 183,45 200,34 C222,46 240,65 251,89 L274,89 C264,62 246,39 224,24 C235,21 248,19 262,19 C313,19 347,51 358,90 L379,90 C367,38 324,0 261,0 C237,0 217,4 201,12 C184,4 164,0 143,0 C64,0 -8.52651283e-14,68 -8.52651283e-14,151 C-8.52651283e-14,233 64,300 143,300 C152,300 161,299 170,298 L152,280 C149,280 146,280 143,280 C76,280 21,222 21,151 C21,79 76,21 143,21 C155,21 167,23 178,26 C161,40 153,59 153,78 C154,135 215,143 265,150 C335,160 363,178 365,213 C366,228 361,242 351,253 C334,270 305,281 271,281 C265,281 258,281 252,280 L235,297 C246,299 259,300 272,300 C312,300 346,288 367,267 C381,253 388,233 387,212 L387.1171,212.05856 Z M207,284 L207,358 L242,367 L242,368 L161,368 L161,367 L196,358 L196,284 L126,208 L140,208 L263,208 L277,208 L207,284 Z M104,183 L193,236 C194,236 193,235 193,234 C193,229 188,223 185,219 C184,218 183,218 183,218 C181,218 182,216 183,216 C184,216 185,218 187,219 C189,221 194,227 195,234 C195,235 197,233 197,232 C205,219 222,238 216,250 L219,252 C228,260 228,260 217,255 L214,253 C206,262 189,256 186,248 C185,245 186,242 189,239 L102,187 C101,187 101,188 100,188 C97,189 94,187 94,184 C93,181 95,178 98,178 C101,177 104,179 104,182 C104,183 104,184 104,184 L104,183 Z" id="path27" fill="url(#linearGradient-1)"></path>
    </g>
</svg>